Coordinates
version=1
nRows=8
nColumns=40
inDegrees=yes

Units are S.I. units (second, meters, Newtons, ...)
Angles are in degrees.

endheader
time	pelvis_tilt	pelvis_list	pelvis_rotation	pelvis_tx	pelvis_ty	pelvis_tz	hip_flexion_r	hip_adduction_r	hip_rotation_r	knee_angle_r	knee_angle_r_beta	ankle_angle_r	subtalar_angle_r	mtp_angle_r	hip_flexion_l	hip_adduction_l	hip_rotation_l	knee_angle_l	knee_angle_l_beta	ankle_angle_l	subtalar_angle_l	mtp_angle_l	lumbar_extension	lumbar_bending	lumbar_rotation	arm_flex_r	arm_add_r	arm_rot_r	elbow_flex_r	pro_sup_r	wrist_flex_r	wrist_dev_r	arm_flex_l	arm_add_l	arm_rot_l	elbow_flex_l	pro_sup_l	wrist_flex_l	wrist_dev_l
     54.19528571	     -3.19857360	     -5.07489897	      2.70931270	      1.07023877	      0.93015576	      0.51364631	      9.30811956	      3.81579976	    -15.86345326	     17.35648351	     17.35648351	     12.97955140	      1.33217917	     -2.56037313	     31.69645080	    -14.39307883	     -0.63380060	     39.36488441	     39.36488441	      7.01699391	    -17.57494015	     10.51292151	    -10.57384001	      5.33106526	      1.99850704	     26.65295837	    -18.23261430	     -0.47838020	     59.95518131	     45.12778473	      0.00000000	      0.00000000	      4.00817731	     -8.28252786	    -11.11881406	     24.93675117	     46.98493032	      0.00000000	      0.00000000
     54.20807143	     -3.39810327	     -5.03771439	      3.06745885	      1.06881618	      0.93018008	      0.51245740	      8.83273888	      3.81925725	    -16.05093835	     16.53987370	     16.53987370	     12.93550293	      1.40386821	     -2.69731238	     31.81294376	    -13.77551310	     -0.23898990	     35.95804468	     35.95804468	      6.90136869	    -16.51351580	     10.20435386	    -10.52687176	      5.40297304	      2.03342788	     27.81983764	    -18.21981830	     -0.68382428	     60.72515783	     45.12280486	      0.00000000	      0.00000000	      3.14886661	     -8.22471670	    -11.29870797	     24.58753657	     46.99220572	      0.00000000	      0.00000000
     54.22085714	     -3.63605060	     -4.95275181	      3.39063972	      1.06745845	      0.93009056	      0.51118281	      8.44281354	      3.74844606	    -16.21200497	     15.84082666	     15.84082666	     12.98777723	      1.48411910	     -2.80643438	     31.92161258	    -13.15307348	      0.09925521	     32.71879982	     32.71879982	      6.93786186	    -14.92265942	     10.10664405	    -10.40797784	      5.38769674	      2.20238564	     28.79430795	    -18.29705197	     -0.85545295	     61.37162303	     45.11530776	      0.00000000	      0.00000000	      2.36887257	     -8.17576217	    -11.41992709	     24.37873518	     46.99536187	      0.00000000	      0.00000000
     54.23364286	     -3.82316854	     -4.93362207	      3.74728672	      1.06628048	      0.93001527	      0.50981596	      7.91099732	      3.76933337	    -16.44291688	     14.98698215	     14.98698215	     12.98134960	      1.65373400	     -2.97190565	     31.97430193	    -12.62063680	      0.44898038	     29.70242132	     29.70242132	      6.93124165	    -13.04403449	      9.87900025	    -10.33095755	      5.45554479	      2.27974395	     29.71783351	    -18.28293042	     -1.03997899	     62.11616072	     45.10468706	      0.00000000	      0.00000000	      1.56885672	     -8.15199785	    -11.57564498	     24.22914386	     47.00434249	      0.00000000	      0.00000000
     54.24642857	     -3.93250263	     -4.93134285	      4.10244917	      1.06531499	      0.93003115	      0.50839694	      7.18719013	      3.84211709	    -16.68733702	     13.94486254	     13.94486254	     12.87077840	      1.92772876	     -3.27643670	     31.92281683	    -12.16278263	      0.67472387	     26.95496888	     26.95496888	      6.88335885	    -10.97124751	      9.44872178	    -10.31583136	      5.52786657	      2.30511146	     30.52909690	    -18.14978192	     -1.23539771	     62.97505116	     45.09118886	      0.00000000	      0.00000000	      0.77050143	     -8.14676064	    -11.80998153	     24.18592272	     47.02616042	      0.00000000	      0.00000000
     54.25921429	     -4.25995601	     -5.05322760	      4.48592511	      1.06417500	      0.92948557	      0.50685032	      6.96290715	      3.95734547	    -16.94880236	     13.38983836	     13.38983836	     12.94659076	      1.97014049	     -3.42866306	     32.26675828	    -11.74746237	      1.15039050	     24.70919092	     24.70919092	      6.77274136	     -9.35569754	      9.52562038	    -10.02985074	      5.72795638	      2.47750681	     31.27214732	    -18.32552301	     -1.39572694	     63.45687155	     45.08598471	      0.00000000	      0.00000000	      0.17683084	     -8.08069163	    -11.90817363	     24.06280202	     47.03093024	      0.00000000	      0.00000000
     54.27200000	     -4.18883154	     -5.05055294	      4.81554917	      1.06377609	      0.92960360	      0.50537149	      5.77091303	      4.13287090	    -17.15940673	     11.81851423	     11.81851423	     12.12241636	      2.25562318	     -5.52409958	     31.94258239	    -11.43833346	      0.88502993	     22.54382528	     22.54382528	      6.18887428	     -7.36948017	      7.68035600	    -10.18658884	      5.73882598	      2.54985577	     31.49739792	    -18.09301376	     -1.90078534	     65.15885609	     45.07410976	      0.00000000	      0.00000000	     -0.66472908	     -8.03110675	    -13.11418507	     24.68437558	     47.20172306	      0.00000000	      0.00000000
     54.28478571	     -4.29861841	     -5.07187479	      5.16973071	      1.06323741	      0.92939233	      0.50371706	      5.08790575	      4.22640622	    -17.40002569	     10.91641956	     10.91641956	     12.15392186	      2.44192219	     -5.56181580	     31.92418158	    -11.01892403	      0.94085431	     20.93870115	     20.93870115	      6.08912131	     -6.29788554	      7.86114943	    -10.05667486	      5.78342222	      2.54112249	     32.03518866	    -17.90712537	     -1.94750849	     65.70565107	     45.06449531	      0.00000000	      0.00000000	     -1.18303915	     -8.08615898	    -13.28076716	     24.38981139	     47.21631139	      0.00000000	      0.00000000
